<?xml version="1.0" standalone="no"?>
<!DOCTYPE svg PUBLIC "-//W3C//DTD SVG 20010904//EN"
 "http://www.w3.org/TR/2001/REC-SVG-20010904/DTD/svg10.dtd">
<svg version="1.0" xmlns="http://www.w3.org/2000/svg"
 width="456.000000pt" height="456.000000pt" viewBox="0 0 456.000000 456.000000"
 preserveAspectRatio="xMidYMid meet">
<metadata>
Created by potrace 1.14, written by Peter Selinger 2001-2017
</metadata>
<g transform="translate(0.000000,456.000000) scale(0.100000,-0.100000)"
fill="#000000" stroke="none">
<path d="M1448 4555 c-1 -1 -30 -5 -63 -8 -66 -6 -198 -60 -237 -97 -13 -12
-33 -29 -45 -37 -34 -23 -117 -152 -141 -218 -16 -46 -20 -77 -18 -134 8 -161
107 -309 294 -435 40 -26 72 -50 72 -53 0 -2 -13 -37 -29 -76 -16 -40 -50
-130 -76 -202 -26 -71 -65 -177 -87 -235 -42 -108 -134 -369 -144 -405 -23
-87 -40 -210 -38 -261 10 -185 21 -229 85 -348 33 -61 175 -207 247 -253 l43
-28 -44 -40 c-23 -22 -71 -64 -105 -93 -34 -29 -78 -76 -98 -104 -21 -27 -59
-67 -85 -88 -26 -21 -46 -40 -43 -43 3 -3 7 -11 8 -19 1 -7 6 -23 10 -35 6
-18 -6 -44 -52 -120 -101 -166 -157 -266 -170 -308 -23 -69 20 -148 102 -191
38 -19 92 -5 133 35 37 36 146 158 169 190 10 12 13 9 19 -18 7 -35 22 -57 66
-100 24 -24 32 -38 39 -66 7 -31 107 -205 134 -235 85 -91 209 -297 245 -407
7 -23 28 -58 46 -79 31 -36 35 -37 112 -42 142 -8 162 7 198 148 9 36 26 91
38 122 18 48 26 58 47 59 64 4 363 5 393 1 31 -4 35 -8 55 -70 12 -37 33 -103
45 -147 30 -105 51 -118 181 -112 86 4 89 6 117 38 16 19 40 63 55 99 14 36
42 94 63 130 20 36 43 79 51 95 8 17 49 73 92 126 53 65 94 131 131 207 31 64
72 131 95 156 26 29 42 55 42 71 0 39 21 29 70 -32 71 -88 157 -173 177 -174
10 -1 28 -3 41 -4 23 -2 82 35 114 71 9 10 21 36 26 57 13 46 1 87 -56 184
-22 38 -49 84 -59 103 -11 19 -41 69 -67 111 -46 74 -47 78 -36 118 l11 41
-63 64 c-35 34 -86 87 -114 117 -28 30 -83 83 -124 119 -64 56 -71 65 -55 75
37 22 93 69 165 140 107 105 177 243 186 370 16 235 -5 326 -186 805 -111 293
-141 375 -144 385 -1 6 -10 27 -19 49 -22 50 -22 52 11 73 102 66 205 156 250
221 78 113 112 296 68 377 -9 17 -16 35 -16 42 0 11 -74 126 -95 148 -73 76
-203 148 -285 160 -112 15 -163 14 -230 -4 -151 -42 -237 -140 -314 -356 l-32
-91 -44 13 c-68 20 -153 28 -300 28 -146 0 -231 -8 -300 -28 l-45 -13 -26 78
c-32 94 -81 189 -123 242 -42 52 -130 110 -191 126 -48 12 -140 22 -147 15z"/>
</g>
</svg>
